<svg xmlns="http://www.w3.org/2000/svg" viewBox="0 0 1600 900" preserveAspectRatio="xMidYMid slice">
  <defs>
    <linearGradient id="sky" x1="0" y1="0" x2="0" y2="1">
      <stop offset="0" stop-color="#010917"/><stop offset="0.55" stop-color="#061b3c"/><stop offset="1" stop-color="#04112a"/>
    </linearGradient>
    <linearGradient id="sea" x1="0" y1="0" x2="0" y2="1">
      <stop offset="0" stop-color="#0b2f66"/><stop offset="1" stop-color="#020712"/>
    </linearGradient>
    <linearGradient id="tower" x1="0" y1="0" x2="1" y2="1">
      <stop offset="0" stop-color="#0e356d"/><stop offset="0.55" stop-color="#071b39"/><stop offset="1" stop-color="#020813"/>
    </linearGradient>
    <filter id="glow"><feGaussianBlur stdDeviation="5" result="b"/><feMerge><feMergeNode in="b"/><feMergeNode in="SourceGraphic"/></feMerge></filter>
    <pattern id="windows" width="18" height="22" patternUnits="userSpaceOnUse"><rect x="2" y="2" width="3" height="4" rx="1" fill="#f4c86a" opacity=".8"/><rect x="10" y="8" width="3" height="4" rx="1" fill="#74bfff" opacity=".62"/></pattern>
  </defs>
  <rect width="1600" height="900" fill="url(#sky)"/>
  <g opacity=".72" fill="#84b7ff">
    <circle cx="180" cy="120" r="1.8"/><circle cx="340" cy="70" r="1.3"/><circle cx="570" cy="140" r="1.5"/><circle cx="840" cy="86" r="1.4"/><circle cx="1110" cy="150" r="1.7"/><circle cx="1330" cy="92" r="1.4"/><circle cx="1470" cy="180" r="1.5"/>
  </g>
  <path d="M0 620 C220 590 390 605 565 582 C760 556 910 596 1105 570 C1270 548 1420 565 1600 538 L1600 900 L0 900Z" fill="url(#sea)"/>
  <g opacity=".92">
    <g transform="translate(80,0)">
      <rect x="40" y="460" width="75" height="170" rx="5" fill="url(#tower)"/><rect x="48" y="470" width="58" height="150" fill="url(#windows)" opacity=".45"/>
      <rect x="135" y="400" width="82" height="230" rx="5" fill="url(#tower)"/><rect x="145" y="414" width="62" height="198" fill="url(#windows)" opacity=".55"/>
      <rect x="235" y="505" width="65" height="125" rx="5" fill="url(#tower)"/>
      <rect x="315" y="365" width="86" height="265" rx="6" fill="url(#tower)"/><rect x="326" y="378" width="64" height="232" fill="url(#windows)" opacity=".55"/>
      <rect x="418" y="435" width="70" height="195" rx="5" fill="url(#tower)"/>
      <rect x="508" y="470" width="64" height="160" rx="5" fill="url(#tower)"/>
    </g>
    <g transform="translate(810,0)">
      <rect x="0" y="445" width="68" height="185" rx="6" fill="url(#tower)"/>
      <rect x="92" y="390" width="84" height="240" rx="6" fill="url(#tower)"/><rect x="103" y="403" width="62" height="208" fill="url(#windows)" opacity=".52"/>
      <rect x="195" y="485" width="58" height="145" rx="5" fill="url(#tower)"/>
      <rect x="270" y="420" width="72" height="210" rx="5" fill="url(#tower)"/>
      <rect x="360" y="462" width="62" height="168" rx="5" fill="url(#tower)"/>
      <rect x="440" y="395" width="86" height="235" rx="5" fill="url(#tower)"/>
    </g>
  </g>
  <!-- Burj Khalifa inspired silhouette -->
  <g transform="translate(690,0)" filter="url(#glow)">
    <path d="M110 635 L127 454 L144 454 L154 346 L168 346 L177 266 L188 266 L195 188 L204 188 L210 115 L216 115 L221 46 L226 115 L232 115 L238 188 L247 188 L254 266 L265 266 L274 346 L288 346 L298 454 L315 454 L332 635Z" fill="#061a34" stroke="#5aa2ff" stroke-opacity=".5" stroke-width="2"/>
    <path d="M221 52 L221 615" stroke="#d7ae56" stroke-opacity=".7" stroke-width="2"/>
  </g>
  <!-- Burj Al Arab inspired sail -->
  <g transform="translate(1235,0)" filter="url(#glow)">
    <path d="M76 602 Q166 455 128 304 Q96 195 35 118 Q111 146 167 234 Q220 322 212 430 Q203 540 143 603Z" fill="#08244d" stroke="#d9b35f" stroke-width="4"/>
    <path d="M63 559 Q149 434 118 314 Q94 222 49 158" fill="none" stroke="#4aa3ff" stroke-width="4" opacity=".75"/>
  </g>
  <g opacity=".55">
    <path d="M0 680 C210 654 420 698 620 671 C820 645 1010 688 1200 660 C1370 636 1490 652 1600 640" fill="none" stroke="#6bb8ff" stroke-width="3"/>
    <path d="M0 724 C260 692 500 734 730 710 C960 686 1180 728 1600 690" fill="none" stroke="#d9ae55" stroke-width="2" opacity=".55"/>
  </g>
</svg>
