<svg xmlns="http://www.w3.org/2000/svg" viewBox="0 0 1280 760" role="img" aria-label="Aurora Lake nature wallpaper">
    <defs>
      <linearGradient id="sky" x1="0" y1="0" x2="1" y2="1"><stop stop-color="#041525"/><stop offset=".55" stop-color="#19545f"/><stop offset="1" stop-color="#07111f"/></linearGradient>
      <radialGradient id="sun"><stop stop-color="#76f0bd" stop-opacity=".95"/><stop offset=".28" stop-color="#76f0bd" stop-opacity=".44"/><stop offset="1" stop-color="#76f0bd" stop-opacity="0"/></radialGradient>
      <linearGradient id="water" x1="0" y1="0" x2="0" y2="1"><stop stop-color="#19545f" stop-opacity=".78"/><stop offset="1" stop-color="#03121f"/></linearGradient>
      <linearGradient id="fade" x1="0" y1="0" x2="0" y2="1"><stop stop-color="#000" stop-opacity="0"/><stop offset="1" stop-color="#000" stop-opacity=".35"/></linearGradient>
      <filter id="blur"><feGaussianBlur stdDeviation="16"/></filter>
    </defs>
    <rect width="1280" height="760" fill="url(#sky)"/>
    <circle cx="969" cy="239" r="260" fill="url(#sun)"/>
    <g fill="#fff"><circle cx="854" cy="156" r="2" opacity="0.20"/><circle cx="257" cy="154" r="2" opacity="0.27"/><circle cx="659" cy="95" r="2" opacity="0.22"/><circle cx="753" cy="253" r="1" opacity="0.24"/><circle cx="678" cy="221" r="1" opacity="0.24"/><circle cx="871" cy="234" r="1" opacity="0.19"/><circle cx="520" cy="114" r="1" opacity="0.19"/><circle cx="490" cy="184" r="1" opacity="0.32"/><circle cx="1229" cy="210" r="1" opacity="0.26"/><circle cx="705" cy="263" r="1" opacity="0.34"/><circle cx="987" cy="166" r="1" opacity="0.28"/><circle cx="977" cy="113" r="2" opacity="0.21"/><circle cx="618" cy="111" r="1" opacity="0.41"/><circle cx="480" cy="71" r="1" opacity="0.38"/><circle cx="64" cy="85" r="1" opacity="0.41"/><circle cx="333" cy="41" r="1" opacity="0.19"/><circle cx="385" cy="260" r="1" opacity="0.36"/><circle cx="318" cy="265" r="1" opacity="0.25"/><circle cx="918" cy="171" r="1" opacity="0.37"/><circle cx="360" cy="207" r="1" opacity="0.20"/><circle cx="646" cy="73" r="1" opacity="0.41"/><circle cx="808" cy="15" r="1" opacity="0.48"/><circle cx="1027" cy="218" r="2" opacity="0.35"/><circle cx="79" cy="132" r="1" opacity="0.29"/><circle cx="158" cy="213" r="2" opacity="0.48"/><circle cx="525" cy="91" r="2" opacity="0.23"/><circle cx="234" cy="213" r="1" opacity="0.44"/><circle cx="336" cy="25" r="1" opacity="0.25"/><circle cx="1155" cy="249" r="1" opacity="0.41"/><circle cx="211" cy="82" r="1" opacity="0.45"/><circle cx="1213" cy="128" r="2" opacity="0.36"/><circle cx="304" cy="91" r="2" opacity="0.46"/><circle cx="545" cy="69" r="1" opacity="0.20"/><circle cx="135" cy="171" r="1" opacity="0.37"/></g>
    <path d="M0 430Q250 400 520 450T910 438T1280 455V760H0Z" fill="url(#water)"/><path d="M0 470Q260 445 520 490T910 478T1280 500" fill="none" stroke="#76f0bd" stroke-opacity=".26" stroke-width="4"/><path d="M100 80Q360 230 580 70T1080 120" fill="none" stroke="#76f0bd" stroke-width="42" stroke-opacity=".28" filter="url(#blur)"/><path d="M170 55Q390 210 650 90T1160 80" fill="none" stroke="#7ed7ff" stroke-width="25" stroke-opacity=".18" filter="url(#blur)"/>
    <rect width="1280" height="760" fill="url(#fade)"/>
    <rect x="1" y="1" width="1278" height="758" rx="2" fill="none" stroke="#fff" stroke-opacity=".035"/>
    </svg>