<svg xmlns="http://www.w3.org/2000/svg" viewBox="0 0 1280 760" role="img" aria-label="Island Sunset nature wallpaper">
    <defs>
      <linearGradient id="sky" x1="0" y1="0" x2="1" y2="1"><stop stop-color="#1e1830"/><stop offset=".55" stop-color="#ad5b63"/><stop offset="1" stop-color="#07111f"/></linearGradient>
      <radialGradient id="sun"><stop stop-color="#ffd18c" stop-opacity=".95"/><stop offset=".28" stop-color="#ffd18c" stop-opacity=".44"/><stop offset="1" stop-color="#ffd18c" stop-opacity="0"/></radialGradient>
      <linearGradient id="water" x1="0" y1="0" x2="0" y2="1"><stop stop-color="#ad5b63" stop-opacity=".78"/><stop offset="1" stop-color="#03121f"/></linearGradient>
      <linearGradient id="fade" x1="0" y1="0" x2="0" y2="1"><stop stop-color="#000" stop-opacity="0"/><stop offset="1" stop-color="#000" stop-opacity=".35"/></linearGradient>
      <filter id="blur"><feGaussianBlur stdDeviation="16"/></filter>
    </defs>
    <rect width="1280" height="760" fill="url(#sky)"/>
    <circle cx="928" cy="157" r="260" fill="url(#sun)"/>
    <g fill="#fff"><circle cx="986" cy="96" r="2" opacity="0.42"/><circle cx="972" cy="265" r="1" opacity="0.30"/><circle cx="319" cy="190" r="1" opacity="0.26"/><circle cx="1100" cy="34" r="1" opacity="0.33"/><circle cx="1157" cy="174" r="1" opacity="0.33"/><circle cx="421" cy="259" r="2" opacity="0.36"/><circle cx="698" cy="226" r="1" opacity="0.46"/><circle cx="753" cy="42" r="1" opacity="0.31"/><circle cx="1245" cy="76" r="1" opacity="0.30"/><circle cx="1078" cy="235" r="2" opacity="0.31"/><circle cx="209" cy="55" r="1" opacity="0.40"/><circle cx="1052" cy="126" r="1" opacity="0.47"/><circle cx="885" cy="153" r="2" opacity="0.37"/><circle cx="1171" cy="213" r="2" opacity="0.37"/><circle cx="1227" cy="131" r="2" opacity="0.35"/><circle cx="908" cy="126" r="1" opacity="0.43"/><circle cx="344" cy="29" r="2" opacity="0.30"/><circle cx="145" cy="46" r="1" opacity="0.31"/><circle cx="189" cy="163" r="1" opacity="0.40"/><circle cx="393" cy="158" r="1" opacity="0.27"/><circle cx="924" cy="262" r="1" opacity="0.42"/><circle cx="271" cy="26" r="1" opacity="0.39"/><circle cx="240" cy="33" r="1" opacity="0.20"/><circle cx="560" cy="55" r="2" opacity="0.22"/><circle cx="985" cy="90" r="2" opacity="0.39"/><circle cx="1200" cy="116" r="1" opacity="0.46"/><circle cx="668" cy="258" r="2" opacity="0.34"/><circle cx="378" cy="229" r="1" opacity="0.19"/><circle cx="465" cy="132" r="2" opacity="0.40"/><circle cx="794" cy="36" r="1" opacity="0.22"/><circle cx="842" cy="125" r="1" opacity="0.47"/><circle cx="323" cy="245" r="1" opacity="0.42"/><circle cx="176" cy="227" r="1" opacity="0.20"/><circle cx="680" cy="48" r="2" opacity="0.35"/></g>
    <path d="M0 430Q250 400 520 450T910 438T1280 455V760H0Z" fill="url(#water)"/><path d="M0 470Q260 445 520 490T910 478T1280 500" fill="none" stroke="#ffd18c" stroke-opacity=".26" stroke-width="4"/><ellipse cx="670" cy="540" rx="215" ry="58" fill="#ecd39c" opacity=".86"/><path d="M620 525q40-118 104-150M640 470q56-34 122-15M646 445q-35-46-84-48" stroke="#175b47" stroke-width="20" fill="none" stroke-linecap="round"/>
    <rect width="1280" height="760" fill="url(#fade)"/>
    <rect x="1" y="1" width="1278" height="758" rx="2" fill="none" stroke="#fff" stroke-opacity=".035"/>
    </svg>